<?xml version="1.0" encoding="utf-8"?>
<!-- Generator: Adobe Illustrator 23.0.1, SVG Export Plug-In . SVG Version: 6.00 Build 0)  -->
<svg version="1.1" id="Layer_1" xmlns="http://www.w3.org/2000/svg" xmlns:xlink="http://www.w3.org/1999/xlink" x="0px" y="0px"
	 viewBox="0 0 73 42" style="enable-background:new 0 0 73 42;" xml:space="preserve">
<style type="text/css">
	.st0{fill:#CCCCCC;}
</style>
<g>
	<path class="st0" d="M45.8,17.3C45.8,17.3,45.8,17.3,45.8,17.3c0.6,0,0.9-0.5,0.9-0.9c0-0.9,0.6-1.6,1.4-1.6c0.8,0,1.4,0.7,1.4,1.6
		c0,0.5,0.4,0.9,0.9,0.9c0.5,0,0.9-0.4,0.9-0.9c0,0,0-0.1,0-0.1c0-1.9-1.4-3.4-3.2-3.4s-3.2,1.5-3.2,3.4c0,0,0,0.1,0,0.1
		C44.9,17,45.3,17.3,45.8,17.3z"/>
	<path class="st0" d="M60.7,17.3C60.7,17.3,60.7,17.3,60.7,17.3c0.6,0,0.9-0.5,0.9-0.9c0-0.9,0.6-1.6,1.4-1.6c0.8,0,1.4,0.7,1.4,1.6
		c0,0.5,0.3,0.9,0.8,0.9c0.5,0,0.9-0.3,1-0.8c0,0,0-0.1,0-0.1c0-1.9-1.4-3.4-3.2-3.4c-1.7,0-3.2,1.5-3.2,3.4c0,0,0,0.1,0,0.1
		C59.8,17,60.2,17.3,60.7,17.3z"/>
	<path class="st0" d="M51,37.6c0.2,0.7,0.6,1.3,1.1,1.8c0.9,0.9,2.1,1.4,3.4,1.4c0,0,0.1,0,0.1,0c2,0,3.7-1.3,4.4-3.2
		c6.8-2,11.7-8.2,11.7-15.6c0-9-7.3-16.2-16.2-16.2S39.3,13,39.3,22C39.3,29.4,44.2,35.6,51,37.6z M58.6,35.8c0,1.7-1.3,3.2-3,3.2
		c-0.8,0-1.6-0.3-2.2-0.9c-0.6-0.6-0.9-1.3-0.9-2.2V29c0.2-0.2,0.5-0.3,0.7-0.5c0.5-0.4,1-0.9,1.5-1.4v1.4v4.4
		c0,0.5,0.4,0.9,0.9,0.9c0.5,0,0.9-0.4,0.9-0.9v-4.4v-1.6c0.4,0.6,0.9,1.1,1.5,1.6c0.2,0.2,0.4,0.4,0.7,0.5c0,0,0,0,0,0V35.8z
		 M67.8,29.3c-1.6,2.6-4,4.7-6.8,5.9c-0.3,0.1-0.6-0.1-0.6-0.4v-4.9c0.8,0.3,1.6,0.4,2.5,0.4c0.7,0,1.4-0.1,2-0.3
		c0.9-0.2,1.8-0.6,2.6-1.1C67.6,28.9,67.9,29.1,67.8,29.3z M41.7,23.9c-0.5-1.2-0.5-2.6-0.4-3.9c1-6.9,6.9-12.2,14.1-12.2
		c7.4,0,13.5,5.6,14.2,12.8c0.1,1.1,0,2.1-0.3,3.2c-0.8,2.3-2.6,4-5,4.6c-1.7,0.5-3.4,0.2-4.8-0.8c-2-1.3-4.6-3.5-1.3-6.9
		c0.4-0.4,0.8-0.7,1.2-1c0.8-0.6,0.2-1.6-0.9-1.6h-6c-1,0-1.6,0.8-1.1,1.5c0.9,1,3,2.4,3.1,3.9c0.1,2.1-2.9,4.3-4.6,4.8
		c-2.7,0.8-5.6-0.3-7.3-2.8C42.2,24.9,42,24.4,41.7,23.9z M43.5,28.9c1.4,0.9,3,1.4,4.6,1.4c0.8,0,1.5-0.1,2.3-0.3
		c0.1,0,0.2-0.1,0.3-0.1v5.1c0,0.3-0.3,0.4-0.5,0.3c-2.9-1.2-5.4-3.3-7-6.1C43.1,29,43.3,28.7,43.5,28.9z"/>
</g>
<path class="st0" d="M70.2,13.6L73.5,3c0,0-9.7-0.4-14.1,4.2l0.9,1.1l1.9,0.5L62.8,8c0,0,7-3.8,7.6-2l-2.5,6l0.4,1.3l1.4,2
	L70.2,13.6z"/>
<path class="st0" d="M40.7,13.6L37.5,3c0,0,9.7-0.4,14.1,4.2l-0.9,1.1l-1.9,0.5L48.2,8c0,0-7-3.8-7.6-2l2.5,6l-0.4,1.3l-1.4,2
	L40.7,13.6z"/>
<path class="st0" d="M21,27.7c-1,0-1.8-0.8-2-1.7l1.8-2.7L20,21.7h-4l-0.8,1.5l1.8,2.7c-0.1,1-1,1.7-2,1.7c-1.1,0-2-0.9-2-2h-2
	c0,2.2,1.8,4,4,4c1.2,0,2.2-0.5,3-1.4c0.7,0.8,1.8,1.4,3,1.4c2.2,0,4-1.8,4-4h-2C22.9,26.8,22.1,27.7,21,27.7z"/>
<path class="st0" d="M17,17.8c0-2.2-1.8-4-4-4s-4,1.8-4,4s1.8,4,4,4S17,19.9,17,17.8z M11.1,17.8c0-1.1,0.9-2,2-2s2,0.9,2,2
	s-0.9,2-2,2S11.1,18.8,11.1,17.8z"/>
<path class="st0" d="M22.9,13.8c-2.2,0-4,1.8-4,4s1.8,4,4,4s4-1.8,4-4S25.1,13.8,22.9,13.8z M22.9,19.7c-1.1,0-2-0.9-2-2s0.9-2,2-2
	s2,0.9,2,2S24,19.7,22.9,19.7z"/>
<path class="st0" d="M35.9,23.5v-1.8h-1.6c-0.1-3.8-1.5-7.4-3.7-10.1V1.7c-3.8,0-7.2,1.6-9.5,4.2c-1-0.2-2-0.3-3-0.3
	c-1.1,0-2.1,0.1-3.2,0.3c-2.4-2.6-5.8-4.2-9.5-4.2v10c-2.2,2.7-3.5,6.2-3.6,10h-2.1v1.8h2.1c0,0.4,0.1,0.7,0.1,1.1h-2.3v1.8h2.7
	c2,6.8,8.2,11.8,15.7,11.8c7.4,0,13.7-5,15.7-11.8h2.3v-1.8h-1.8c0.1-0.4,0.1-0.7,0.1-1.1H35.9z M28.6,3.9v5.7
	c-1.5-1.3-3.3-2.4-5.3-3C24.7,5.2,26.5,4.3,28.6,3.9z M7.3,3.9c2,0.4,3.9,1.3,5.4,2.7c-2,0.7-3.8,1.8-5.4,3.1V3.9z M31.9,24.6h-5
	v1.8h4.5c-1.9,5.6-7.2,9.7-13.5,9.7c-6.3,0-11.6-4.1-13.5-9.7h4.1v-1.8H4c-0.1-0.4-0.1-0.7-0.2-1.1h3.7v-1.8H3.8
	c0.1-7.7,6.5-14,14.2-14c7.7,0,14.1,6.2,14.2,14h-4.3v1.8h4.2C32.1,23.9,32,24.3,31.9,24.6z"/>
</svg>
