<?xml version="1.0" encoding="utf-8"?>
<!-- Generator: Adobe Illustrator 23.0.1, SVG Export Plug-In . SVG Version: 6.00 Build 0)  -->
<svg version="1.1" id="Layer_1" xmlns="http://www.w3.org/2000/svg" xmlns:xlink="http://www.w3.org/1999/xlink" x="0px" y="0px"
	 viewBox="0 0 570.07 110" style="enable-background:new 0 0 570.07 110;" xml:space="preserve">
<style type="text/css">
	.st0{fill:#414042;}
	.st1{fill:#FFFFFF;}
</style>
<g>
	<path class="st0" d="M451.03,61.66c0.04,0,0.07,0,0.11,0c0.92-0.06,1.62-0.85,1.56-1.77c0-1.62,1.15-2.93,2.57-2.93
		c1.42,0,2.57,1.31,2.57,2.96c-0.03,0.92,0.68,1.7,1.6,1.74c0.91,0.04,1.71-0.67,1.75-1.6c0-0.05,0-0.11,0-0.17
		c0-3.46-2.66-6.28-5.92-6.28c-3.27,0-5.92,2.82-5.92,6.28c0,0.07,0,0.14,0.01,0.2C449.42,60.97,450.15,61.66,451.03,61.66z"/>
	<path class="st0" d="M478.94,61.66c0.04,0,0.07,0,0.11,0c0.92-0.06,1.62-0.85,1.56-1.77c0-1.62,1.15-2.93,2.57-2.93
		c1.42,0,2.57,1.31,2.57,2.95c-0.04,0.91,0.65,1.69,1.56,1.75c0.92,0.07,1.72-0.64,1.78-1.56c0-0.06,0.01-0.13,0.01-0.2
		c0-3.46-2.66-6.28-5.92-6.28c-3.27,0-5.92,2.82-5.92,6.28c0,0.07,0,0.14,0.01,0.2C477.32,60.97,478.06,61.66,478.94,61.66z"/>
	<path class="st0" d="M460.74,99.51c0.45,1.25,1.17,2.39,2.15,3.35c1.71,1.68,3.95,2.59,6.34,2.59c0.05,0,0.1,0,0.16,0
		c3.74-0.06,6.95-2.52,8.25-5.92c12.66-3.66,21.95-15.34,21.95-29.17c0-16.74-13.62-30.36-30.36-30.36s-30.36,13.62-30.36,30.36
		C438.87,84.16,448.12,95.83,460.74,99.51z M474.92,96.15c0,3.23-2.51,5.9-5.59,5.96c-1.54,0.02-2.99-0.55-4.09-1.63
		c-1.1-1.08-1.7-2.52-1.7-4.06V83.43c0.44-0.28,0.87-0.59,1.29-0.92c1.01-0.79,1.92-1.7,2.73-2.71v2.71v8.3
		c0,0.92,0.75,1.67,1.67,1.67s1.67-0.75,1.67-1.67v-8.3v-2.9c0.82,1.08,1.74,2.06,2.75,2.9c0.4,0.34,0.82,0.66,1.25,0.96
		c0.01,0,0.01,0.01,0.02,0.01V96.15z M492.12,84.02c-2.94,4.91-7.41,8.8-12.75,11.01c-0.52,0.22-1.1-0.15-1.1-0.72v-9.13
		c1.5,0.54,3.06,0.82,4.65,0.82c1.26,0,2.53-0.17,3.81-0.51c1.75-0.44,3.35-1.14,4.8-2.04C491.91,83.21,492.35,83.65,492.12,84.02z
		 M443.51,73.86c-0.89-2.31-1.02-4.84-0.67-7.29c1.85-12.91,12.98-22.86,26.39-22.86c13.79,0,25.16,10.51,26.53,23.95
		c0.2,1.98,0.08,4-0.56,5.89c-1.43,4.25-4.81,7.53-9.31,8.66c-3.19,0.85-6.33,0.32-9.06-1.55c-3.65-2.49-8.66-6.54-2.42-12.91
		c0.66-0.67,1.42-1.22,2.16-1.79c1.56-1.21,0.38-3.08-1.7-3.08h-11.27c-1.91,0-3.06,1.57-2.04,2.76c1.66,1.94,5.54,4.57,5.72,7.33
		c0.25,3.93-5.4,8.05-8.65,9c-5.01,1.47-10.46-0.61-13.58-5.16C444.42,75.88,443.91,74.89,443.51,73.86z M446.78,83.21
		c2.57,1.7,5.56,2.63,8.59,2.63c1.4,0,2.82-0.2,4.21-0.6c0.2-0.06,0.4-0.14,0.6-0.2v9.44c0,0.47-0.48,0.81-0.91,0.63
		c-5.51-2.23-10.12-6.25-13.09-11.33C445.96,83.39,446.41,82.97,446.78,83.21z"/>
</g>
<path class="st0" d="M496.73,54.7l6.06-19.85c0,0-18.04-0.75-26.28,7.94l1.69,2.08l3.58,0.91l1.04-1.67c0,0,13-7.17,14.18-3.66
	l-4.68,11.19l0.72,2.47l2.54,3.71L496.73,54.7z"/>
<path class="st0" d="M441.61,54.7l-6.06-19.85c0,0,18.04-0.75,26.28,7.94l-1.69,2.08l-3.58,0.91l-1.04-1.67c0,0-13-7.17-14.18-3.66
	l4.68,11.19l-0.72,2.47l-2.54,3.71L441.61,54.7z"/>
<path class="st0" d="M404.65,80.96c-1.88,0-3.41-1.41-3.66-3.22l3.34-5.02l-1.54-2.88h-7.41l-1.54,2.88l3.34,5.02
	c-0.24,1.81-1.78,3.22-3.66,3.22c-2.04,0-3.71-1.66-3.71-3.7h-3.7c0,4.09,3.32,7.41,7.41,7.41c2.21,0,4.2-0.98,5.56-2.53
	c1.36,1.54,3.34,2.53,5.56,2.53c4.09,0,7.41-3.32,7.41-7.41h-3.71C408.35,79.3,406.69,80.96,404.65,80.96z"/>
<path class="st0" d="M397.24,62.44c0-4.09-3.32-7.41-7.41-7.41s-7.41,3.32-7.41,7.41s3.32,7.41,7.41,7.41S397.24,66.52,397.24,62.44
	z M386.12,62.44c0-2.04,1.66-3.7,3.7-3.7s3.71,1.66,3.71,3.7s-1.66,3.7-3.71,3.7S386.12,64.48,386.12,62.44z"/>
<path class="st0" d="M408.35,55.03c-4.09,0-7.41,3.32-7.41,7.41s3.32,7.41,7.41,7.41s7.41-3.32,7.41-7.41S412.44,55.03,408.35,55.03
	z M408.35,66.14c-2.04,0-3.7-1.66-3.7-3.7s1.66-3.7,3.7-3.7s3.71,1.66,3.71,3.7S410.4,66.14,408.35,66.14z"/>
<path class="st0" d="M432.62,73.26v-3.45h-3.04c-0.12-7.19-2.72-13.79-7-18.95V32.46c-7.06,0-13.39,3.04-17.8,7.88
	c-1.84-0.35-3.74-0.54-5.68-0.54c-2.02,0-4,0.2-5.91,0.58c-4.41-4.86-10.76-7.92-17.84-7.92v18.73c-4.12,5.11-6.62,11.58-6.74,18.62
	h-3.84v3.45h3.97c0.07,0.69,0.16,1.38,0.27,2.05h-4.24v3.45h5.02c3.68,12.72,15.42,22.05,29.3,22.05c13.88,0,25.62-9.33,29.3-22.05
	h4.22v-3.45h-3.43c0.11-0.68,0.21-1.36,0.27-2.05H432.62z M418.87,36.5v10.6c-2.89-2.47-6.25-4.41-9.93-5.67
	C411.68,38.96,415.09,37.2,418.87,36.5z M379.05,36.5c3.82,0.7,7.25,2.49,10,5c-3.71,1.3-7.1,3.29-10,5.83V36.5z M425.19,75.31
	h-9.35v3.45h8.44c-3.54,10.51-13.48,18.12-25.17,18.12c-11.7,0-21.63-7.6-25.17-18.12h7.63v-3.45h-8.55
	c-0.13-0.68-0.24-1.36-0.31-2.05h7.01v-3.45h-7.16c0.27-14.42,12.07-26.08,26.55-26.08c14.49,0,26.28,11.66,26.55,26.08h-7.96v3.45
	h7.81C425.42,73.95,425.31,74.64,425.19,75.31z"/>
<path class="st1" d="M3.23,7.18c0-1.35,1.08-2.57,2.57-2.57h54.98c1.49,0,2.57,1.22,2.57,2.57v11.08c0,1.35-1.08,2.57-2.57,2.57
	H20.8v25.4h33.37c1.35,0,2.57,1.22,2.57,2.57v11.08c0,1.35-1.22,2.57-2.57,2.57H20.8v34.18c0,1.35-1.22,2.57-2.57,2.57H5.8
	c-1.49,0-2.57-1.22-2.57-2.57V7.18z"/>
<path class="st1" d="M94.02,43.79c13.91,0,25.26,10.54,25.26,25.13c0,0.95-0.14,2.7-0.27,3.65c-0.14,1.35-1.35,2.3-2.57,2.3H81.86
	C82.27,80.4,87,86.61,94.83,86.61c4.19,0,8.11-1.62,10.54-3.38c1.35-0.81,2.57-1.08,3.51,0l5.54,6.35c0.95,0.95,1.22,2.43-0.14,3.51
	c-4.46,4.19-11.35,7.43-20.13,7.43c-16.21,0-27.69-12.83-27.69-28.37C66.46,56.89,77.94,43.79,94.02,43.79z M103.48,65.4
	c-0.41-5-4.73-9.19-9.86-9.19c-5.4,0-9.86,4.05-10.54,9.19H103.48z"/>
<path class="st1" d="M133.47,59.32h-4.59c-1.35,0-2.43-1.22-2.43-2.57V47.7c0-1.49,1.08-2.57,2.43-2.57h4.59v-15
	c0-1.35,1.22-2.57,2.57-2.57l11.08-0.14c1.35,0,2.43,1.22,2.43,2.57v15.13h11.89c1.49,0,2.57,1.08,2.57,2.57v9.05
	c0,1.35-1.08,2.57-2.57,2.57h-11.89v21.61c0,3.78,2.03,4.32,4.19,4.32c2.3,0,5.13-0.95,6.62-1.49s2.57,0.14,2.97,1.49l2.7,8.51
	c0.54,1.35-0.14,2.7-1.49,3.24c-0.68,0.41-9.46,3.51-16.08,3.51c-10.4,0-15-6.48-15-17.43V59.32z"/>
<path class="st1" d="M201.83,43.79c8.38,0,14.86,3.38,19.99,9.59c0.95,1.22,0.68,2.84-0.68,3.78l-6.21,5.94
	c-1.22,1.08-2.43,0.41-3.38-0.41c-2.16-2.43-5.54-4.32-9.32-4.32c-7.3,0-13.24,6.21-13.24,13.78c0,7.7,5.81,13.78,13.1,13.78
	c5.81,0,8.38-2.84,10.81-5.13c0.95-0.95,2.3-1.22,3.38-0.41l5.81,5c1.35,1.08,1.89,2.43,0.95,3.78
	c-4.59,7.16-11.75,11.35-21.34,11.35c-15.27,0-28.64-12.16-28.64-28.37C173.05,56.21,186.7,43.79,201.83,43.79z"/>
<path class="st1" d="M234.79,7.18c0-1.35,1.22-2.57,2.57-2.57h11.48c1.35,0,2.57,1.22,2.57,2.57v41.07
	c2.7-2.03,7.97-4.46,14.32-4.46c17.16,0,24.18,13.24,24.18,26.88v25.94c0,1.35-1.22,2.57-2.57,2.57H276.4
	c-1.49,0-2.57-1.22-2.57-2.57V70.53c0-7.43-4.19-12.16-10.67-12.16c-6.21,0-10.4,4.05-11.75,9.59v28.64c0,1.49-0.81,2.57-2.84,2.57
	h-11.21c-1.35,0-2.57-1.22-2.57-2.57V7.18z"/>
<path class="st0" d="M305.05,7.18c0-1.35,1.22-2.57,2.57-2.57h11.48c1.35,0,2.57,1.22,2.57,2.57v39.04
	c2.43-0.95,6.62-2.43,12.02-2.43c16.08,0,26.75,12.56,26.75,28.37c0,15.54-11.21,28.37-25.94,28.37c-11.35,0-17.7-8.11-17.7-8.11
	l-1.35,4.19c-0.41,1.49-1.35,2.57-2.57,2.57h-5.27c-1.35,0-2.57-1.22-2.57-2.57V7.18z M332.47,85.94c7.16,0,12.29-6.21,12.29-13.78
	s-5.54-13.78-13.1-13.78c-6.75,0-10.54,3.11-10.54,3.11v15.67C322.07,80.4,325.31,85.94,332.47,85.94z"/>
<path class="st0" d="M509.58,7.18c0-1.35,1.22-2.57,2.57-2.57h11.48c1.35,0,2.57,1.22,2.57,2.57v58.5l18.64-18.91
	c0.95-0.81,1.89-1.62,3.38-1.62h12.29c2.3,0,3.11,2.43,1.76,3.92l-20.13,20.53l24.05,25.8c1.35,1.49,0.54,3.78-1.76,3.78h-14.59
	c-0.81,0-1.89-0.54-2.3-1.08L526.2,73.78v22.83c0,1.35-1.22,2.57-2.57,2.57h-11.48c-1.35,0-2.57-1.22-2.57-2.57V7.18z"/>
</svg>
