<?xml version="1.0" encoding="utf-8"?>
<!-- Generator: Adobe Illustrator 23.0.1, SVG Export Plug-In . SVG Version: 6.00 Build 0)  -->
<svg version="1.1" id="Layer_1" xmlns="http://www.w3.org/2000/svg" xmlns:xlink="http://www.w3.org/1999/xlink" x="0px" y="0px"
	 viewBox="0 0 74.85 39.95" style="enable-background:new 0 0 74.85 39.95;" xml:space="preserve">
<style type="text/css">
	.st0{fill:#FFFFFF;}
</style>
<g>
	<path class="st0" d="M46.54,16.13c0.02,0,0.04,0,0.06,0c0.49-0.03,0.87-0.45,0.83-0.95c0-0.87,0.62-1.57,1.38-1.57
		c0.76,0,1.38,0.7,1.38,1.58c-0.02,0.49,0.36,0.91,0.86,0.93c0.49,0.02,0.91-0.36,0.93-0.86c0-0.03,0-0.06,0-0.09
		c0-1.85-1.42-3.36-3.17-3.36c-1.75,0-3.17,1.51-3.17,3.36c0,0.04,0,0.07,0,0.11C45.68,15.76,46.07,16.13,46.54,16.13z"/>
	<path class="st0" d="M61.47,16.13c0.02,0,0.04,0,0.06,0c0.49-0.03,0.87-0.45,0.83-0.95c0-0.87,0.62-1.57,1.38-1.57
		c0.76,0,1.37,0.7,1.38,1.58c-0.02,0.49,0.35,0.9,0.84,0.94c0.49,0.04,0.92-0.34,0.95-0.83c0-0.03,0-0.07,0-0.11
		c0-1.85-1.42-3.36-3.17-3.36c-1.75,0-3.17,1.51-3.17,3.36c0,0.04,0,0.07,0,0.11C60.61,15.76,61,16.13,61.47,16.13z"/>
	<path class="st0" d="M51.74,36.38c0.24,0.67,0.63,1.28,1.15,1.79c0.91,0.9,2.11,1.39,3.39,1.39c0.03,0,0.06,0,0.08,0
		c2-0.03,3.72-1.35,4.41-3.17c6.77-1.96,11.74-8.21,11.74-15.6c0-8.95-7.29-16.24-16.24-16.24s-16.24,7.29-16.24,16.24
		C40.04,28.17,44.98,34.41,51.74,36.38z M59.32,34.59c0,1.73-1.34,3.16-2.99,3.19c-0.82,0.01-1.6-0.3-2.19-0.87
		c-0.59-0.58-0.91-1.35-0.91-2.17v-6.95c0.24-0.15,0.47-0.32,0.69-0.49c0.54-0.42,1.03-0.91,1.46-1.45v1.45v4.44
		c0,0.49,0.4,0.9,0.9,0.9c0.49,0,0.9-0.4,0.9-0.9v-4.44v-1.55c0.44,0.58,0.93,1.1,1.47,1.55c0.22,0.18,0.44,0.35,0.67,0.51
		c0,0,0.01,0,0.01,0.01V34.59z M68.52,28.1c-1.57,2.63-3.96,4.71-6.82,5.89c-0.28,0.12-0.59-0.08-0.59-0.39v-4.88
		c0.8,0.29,1.64,0.44,2.49,0.44c0.67,0,1.36-0.09,2.04-0.27c0.93-0.23,1.79-0.61,2.57-1.09C68.41,27.66,68.64,27.9,68.52,28.1z
		 M42.52,22.66c-0.48-1.24-0.55-2.59-0.36-3.9c0.99-6.91,6.94-12.23,14.12-12.23c7.37,0,13.46,5.62,14.19,12.81
		c0.11,1.06,0.04,2.14-0.3,3.15c-0.77,2.27-2.57,4.03-4.98,4.63c-1.71,0.46-3.38,0.17-4.85-0.83c-1.95-1.33-4.63-3.5-1.29-6.9
		c0.35-0.36,0.76-0.65,1.15-0.96c0.84-0.65,0.2-1.65-0.91-1.65h-6.03c-1.02,0-1.64,0.84-1.09,1.48c0.89,1.04,2.96,2.45,3.06,3.92
		c0.14,2.1-2.89,4.31-4.62,4.82c-2.68,0.79-5.6-0.32-7.26-2.76C43.01,23.74,42.73,23.21,42.52,22.66z M44.27,27.67
		c1.38,0.91,2.97,1.41,4.6,1.41c0.75,0,1.51-0.11,2.25-0.32c0.11-0.03,0.21-0.07,0.32-0.11v5.05c0,0.25-0.26,0.43-0.49,0.34
		c-2.95-1.19-5.41-3.34-7-6.06C43.83,27.76,44.07,27.53,44.27,27.67z"/>
</g>
<path class="st0" d="M70.99,12.41L74.23,1.8c0,0-9.65-0.4-14.06,4.24l0.9,1.11l1.91,0.49l0.56-0.89c0,0,6.96-3.84,7.58-1.96
	l-2.51,5.98l0.38,1.32l1.36,1.98L70.99,12.41z"/>
<path class="st0" d="M41.5,12.41L38.26,1.8c0,0,9.65-0.4,14.06,4.24l-0.9,1.11L49.5,7.64l-0.56-0.89c0,0-6.96-3.84-7.58-1.96
	l2.51,5.98l-0.38,1.32l-1.36,1.98L41.5,12.41z"/>
<path class="st0" d="M21.73,26.46c-1,0-1.83-0.75-1.96-1.72l1.79-2.68l-0.82-1.54h-3.96l-0.82,1.54l1.79,2.68
	c-0.13,0.97-0.95,1.72-1.96,1.72c-1.09,0-1.98-0.89-1.98-1.98h-1.98c0,2.19,1.78,3.96,3.96,3.96c1.18,0,2.25-0.52,2.97-1.35
	c0.73,0.83,1.79,1.35,2.97,1.35c2.19,0,3.96-1.78,3.96-3.96h-1.98C23.71,25.57,22.82,26.46,21.73,26.46z"/>
<path class="st0" d="M17.77,16.55c0-2.19-1.78-3.96-3.96-3.96s-3.96,1.78-3.96,3.96s1.78,3.96,3.96,3.96S17.77,18.74,17.77,16.55z
	 M11.82,16.55c0-1.09,0.89-1.98,1.98-1.98s1.98,0.89,1.98,1.98s-0.89,1.98-1.98,1.98S11.82,17.64,11.82,16.55z"/>
<path class="st0" d="M23.71,12.59c-2.19,0-3.96,1.78-3.96,3.96s1.78,3.96,3.96,3.96s3.96-1.78,3.96-3.96S25.9,12.59,23.71,12.59z
	 M23.71,18.53c-1.09,0-1.98-0.89-1.98-1.98s0.89-1.98,1.98-1.98s1.98,0.89,1.98,1.98S24.81,18.53,23.71,18.53z"/>
<path class="st0" d="M36.69,22.34v-1.85h-1.63c-0.06-3.85-1.45-7.38-3.75-10.14V0.51c-3.77,0-7.16,1.63-9.52,4.22
	c-0.99-0.19-2-0.29-3.04-0.29c-1.08,0-2.14,0.11-3.16,0.31c-2.36-2.6-5.76-4.24-9.54-4.24v10.02c-2.21,2.74-3.54,6.19-3.6,9.96H0.4
	v1.85h2.12c0.04,0.37,0.09,0.74,0.15,1.1H0.4v1.85h2.69c1.97,6.8,8.25,11.79,15.68,11.79c7.43,0,13.71-4.99,15.67-11.79h2.26v-1.85
	h-1.84c0.06-0.36,0.11-0.73,0.15-1.1H36.69z M29.34,2.68v5.67c-1.55-1.32-3.35-2.36-5.31-3.03C25.49,3.99,27.32,3.05,29.34,2.68z
	 M8.04,2.68c2.04,0.38,3.88,1.33,5.35,2.68c-1.99,0.69-3.8,1.76-5.35,3.12V2.68z M32.72,23.44h-5v1.85h4.51
	c-1.9,5.62-7.21,9.69-13.47,9.69c-6.26,0-11.57-4.07-13.47-9.69h4.08v-1.85H4.81c-0.07-0.36-0.13-0.73-0.17-1.1h3.75v-1.85H4.56
	c0.14-7.72,6.45-13.95,14.2-13.95c7.75,0,14.06,6.23,14.2,13.95h-4.26v1.85h4.18C32.84,22.71,32.79,23.08,32.72,23.44z"/>
</svg>
